<?xml version="1.0" encoding="UTF-8"?>
<svg id="Calque_2" data-name="Calque 2" xmlns="http://www.w3.org/2000/svg" viewBox="0 0 266.27594 101.51429">
  <defs>
    <style>
      .cls-1 {
        fill: #2e2e2f;
      }
    </style>
  </defs>
  <g id="Calque_1-2" data-name="Calque 1">
    <g>
      <path class="cls-1" d="m124.37497,12.18736l1.695.03297"/>
      <path class="cls-1" d="m141.47589,18.85497c-.68618-.19512-1.24844-.69389-1.51641-1.35503-1.36142-3.35893-2.7384-5.21366-4.86933-5.21366l-3.38659-.06596h-7.34043v10.06754h3.8483c1.3388,0,2.2654-.72217,2.43688-4.12528h.86071l-.10224,4.60672.10224,5.08489h-.86071c0-3.33387-.85736-4.60674-2.43688-4.60674h-3.8483v8.69243c0,2.1995.78813,2.71393,3.39979,2.71393h3.19538c3.98677,0,5.08489-.92662,5.53332-6.25223h.8574l-.24072,4.12198-.10224,3.09314h-14.12028l-5.08485.10222v-.85736l.68592-.06926c2.37094-.27371,2.95462-.34294,2.95462-3.74605v-15.25463c0-3.39981-.58368-3.46907-2.95462-3.74277l-.68592-.06924v-.85738l5.01561.09894.06924.00328,1.6785.03959,15.45908.08902.32316,2.7535.47277,2.57975c.1267.69135.70436,1.21201,1.40498,1.26801,3.21918.25733,5.09379.10347,6.2475-2.16271l2.31161-4.56717h3.46577l9.82682-.10222.37589,2.74689.86071,4.22751-.75516.20445c-1.58286-3.98349-2.44022-6.15-5.39489-6.15h-5.08485v18.89518c0,3.40311.68592,3.47235,3.46907,3.74605l.75516.06926v.85736l-5.59929-.10222-5.77077.10222v-.85736l.75512-.06926c2.78318-.27371,3.46907-.34294,3.46907-3.74605V12.59296l-3.99997,8.04612-2.61826-.91344-3.06189-.87066Z"/>
    </g>
  </g>
  <g id="Calque_3" data-name="Calque 3">
    <g>
      <path class="cls-1" d="m19.75491,17.43511c2.03654.52527,3.55958,1.36571,4.57042,2.52131,1.40081,1.61031,2.10121,3.57969,2.10121,5.90814,0,1.76868-.46241,3.46209-1.38593,5.08024-.92482,1.61972-2.19176,2.80197-3.80146,3.54519-1.611.74479-4.0692,1.1164-7.37592,1.1164H0v-.97215h1.10461c1.22749,0,2.10833-.47196,2.64252-1.41745.33242-.61308.49863-1.91607.49863-3.9121V6.30248c0-2.20614-.20954-3.59851-.62862-4.17552-.5633-.76988-1.40081-1.1556-2.51253-1.1556H0v-.97136h12.6933c2.36831,0,4.2671.20932,5.69701.62954,2.16589.63033,3.81957,1.74673,4.96039,3.3492,1.14083,1.6009,1.71124,3.44328,1.71124,5.52712,0,1.78593-.44753,3.38369-1.3426,4.79174-.89572,1.40961-2.21698,2.45545-3.96443,3.13752Zm-11.3507-1.41745c.5342.1223,1.14471.21481,1.83088.27596.68553.06115,1.44026.09251,2.26354.09251,2.10833,0,3.69281-.27596,4.75473-.82789,1.06128-.55193,1.87357-1.3955,2.43687-2.53385s.84462-2.38019.84462-3.72865c0-2.08384-.7004-3.86036-2.10121-5.33112s-3.44382-2.20614-6.13032-2.20614c-1.44414,0-2.74341.19286-3.89911.57858v13.68059Zm0,17.01568c1.67502.47196,3.3287.70873,4.96039.70873,2.61407,0,4.60663-.71343,5.97899-2.14029,1.37171-1.42686,2.05788-3.19083,2.05788-5.29035,0-1.38296-.31108-2.71417-.93193-3.99207s-1.63169-2.28454-3.0325-3.01992-3.13339-1.10229-5.19839-1.10229c-.89572,0-1.66079.01725-2.29653.05331-.63509.0345-1.14794.09565-1.53792.18345v14.59943Z"/>
      <path class="cls-1" d="m190.77746,17.43511c2.03654.52527,3.55958,1.36571,4.57042,2.52131,1.40081,1.61031,2.10121,3.57969,2.10121,5.90814,0,1.76868-.46241,3.46209-1.38593,5.08024-.92482,1.61972-2.19176,2.80197-3.80146,3.54519-1.611.74479-4.0692,1.1164-7.37592,1.1164h-13.86323v-.97215h1.10461c1.22749,0,2.10833-.47196,2.64252-1.41745.33242-.61308.49863-1.91607.49863-3.9121V6.30248c0-2.20614-.20954-3.59851-.62862-4.17552-.5633-.76988-1.40081-1.1556-2.51253-1.1556h-1.10461v-.97136h12.6933c2.36831,0,4.2671.20932,5.69701.62954,2.16589.63033,3.81957,1.74673,4.96039,3.3492,1.14083,1.6009,1.71124,3.44328,1.71124,5.52712,0,1.78593-.44753,3.38369-1.3426,4.79174-.89572,1.40961-2.21698,2.45545-3.96443,3.13752Zm-11.3507-1.41745c.5342.1223,1.14471.21481,1.83088.27596.68553.06115,1.44026.09251,2.26354.09251,2.10833,0,3.69281-.27596,4.75473-.82789,1.06128-.55193,1.87357-1.3955,2.43687-2.53385s.84462-2.38019.84462-3.72865c0-2.08384-.7004-3.86036-2.10121-5.33112s-3.44382-2.20614-6.13032-2.20614c-1.44414,0-2.74341.19286-3.89911.57858v13.68059Zm0,17.01568c1.67502.47196,3.3287.70873,4.96039.70873,2.61407,0,4.60663-.71343,5.97899-2.14029,1.37171-1.42686,2.05788-3.19083,2.05788-5.29035,0-1.38296-.31108-2.71417-.93193-3.99207s-1.63169-2.28454-3.0325-3.01992-3.13339-1.10229-5.19839-1.10229c-.89572,0-1.66079.01725-2.29653.05331-.63509.0345-1.14794.09565-1.53792.18345v14.59943Z"/>
      <path class="cls-1" d="m42.20114,34.88749v.72094h-12.98499v-.72094h1.07296c1.25179,0,2.15994-.31744,2.72645-.9535.35765-.41512.53648-1.41513.53648-2.99886l-.0007-17.1429c0-1.33722-.09675-2.21979-.29026-2.64886-.14947-.32442-.45508-.60349-.91682-.83722-.65592-.31163-1.34054-.46745-2.05585-.46745h-1.07296v-.72035h12.98499v.72035h-1.09498c-1.23711,0-2.13859.31861-2.70443.95466-.37233.41512-.5585,1.41513-.5585,2.99886l.0007,17.1429c0,1.33722.09675,2.21979.29026,2.6477.1488.32558.46175.60349.93884.83722.64058.31163,1.31852.46745,2.03383.46745h1.09498Z"/>
      <path class="cls-1" d="m107.25104,0v.72949h1.05228c1.1889,0,2.06352.27504,2.61009.81322.42371.40664.62865,1.42315.62865,3.06155v24.40224L85.38224.01155h-8.21304v.72949c.87462,0,1.53054.05978,1.95417.17942.8883.2392,1.5579.51424,2.00889.80125s1.12059.873,1.99512,1.76994v27.64446c0,1.483-.16398,2.42775-.49194,2.84629-.53298.68168-1.44855,1.01658-2.7468,1.01658l-3.8972-.12625c-1.65357-.15548-2.99277-.51424-4.01769-1.08833-1.02492-.57402-2.25486-1.73402-3.68973-3.48009l-6.25887-7.60603c2.54178-.50234,4.42764-1.35139,5.6439-2.54731s1.81755-2.61907,1.81755-4.2455c0-1.53081-.53298-2.8344-1.59894-3.93462-1.06587-1.1122-2.35044-1.86563-3.88098-2.2722-1.53054-.41862-3.81326-.52661-7.02472-.52661l-11.13683-.09529v.72949h1.13418c1.14795,0,2.02257.28701,2.5965.8611.42363.40657.62856,1.43505.62856,3.10936v17.12558c0,1.51884-.16398,2.47556-.47826,2.88213-.54666.72957-1.46223,1.08833-2.7468,1.08833h-1.13418v.72949h12.98232v-.72949h-1.18898c-1.12051,0-1.98145-.28701-2.54178-.8611-.42363-.3946-.62856-1.43505-.62856-3.10936v-7.70172c.24597.01197.47826.02394.69688.02394.2187.0119.43731.0119.62865.0119.47826,0,1.09323-.0119,1.84482-.03584l10.26214,12.42489h21.4849l.00074-.62646h-1.06587c-1.17531,0-2.04984-.27511-2.62386-.81322-.39627-.40664-.60129-1.42315-.60129-3.04965V5.60845l27.60846,30.01698h.80622V4.60426c0-1.4949.16398-2.43965.49194-2.85819.53298-.68168,1.44855-1.01658,2.73312-1.01658h1.06596v-.72949h-10.54989Zm-51.52571,21.99265c-.13671,0-.31428-.01197-.5193-.01197-.20502-.01197-.45099-.01197-.73791-.01197v-11.02634c1.47583-.25117,2.65113-.37073,3.51199-.37073,1.95425,0,3.52575.51424,4.70097,1.55468,1.1889,1.02847,1.7766,2.37987,1.7766,4.03024,0,1.69819-.72432,3.09746-2.20023,4.18572-1.46223,1.10023-3.64869,1.65037-6.53211,1.65037Z"/>
    </g>
    <path class="cls-1" d="m254.6011,13.20777v.71997h1.06006c1.17993,0,2.05994.28003,2.60986.82001.42004.40002.62012,1.41998.62012,3.06v11.19L232.73111.00769h-8.21008v.73004c.88013,0,1.53003.06,1.96008.17999.88.22998,1.54993.51001,2,.79999.45996.28003,1.13.87,2,1.77002v27.63995c0,1.48004-.16003,2.43005-.49011,2.85004-.53992.67999-1.44995,1.01001-2.75,1.01001h-1.33242v.63h10.83242v-.63h-1.06982c-1.17017,0-2.05005-.27002-2.62012-.81-.3999-.41003-.59998-1.42004-.59998-3.05005V5.59772l27.60999,30.02002h.80005v-17.81c0-1.5.16992-2.44.48999-2.85999.54004-.67999,1.44995-1.02002,2.73999-1.02002h1.06006v-.71997h-10.55005Z"/>
    <path class="cls-1" d="m200.60856,22.9292c0-7.40882,5.06639-12.64634,11.95623-12.64634s11.95623,5.23751,11.95623,12.64634c0,7.43968-5.06639,12.6772-11.95623,12.6772s-11.95623-5.23751-11.95623-12.6772Zm11.95623,11.64484c5.96128,0,8.44118-4.40995,8.44118-11.64484,0-7.20123-2.47989-11.61118-8.44118-11.61118s-8.44118,4.40995-8.44118,11.61118c0,7.23489,2.47989,11.64484,8.44118,11.64484Z"/>
    <path class="cls-1" d="m118.34134,51.34315c0-3.60684,2.78053-6.44343,6.33243-6.44343,3.55414,0,6.33467,2.83659,6.33467,6.44343,0,3.52499-2.78053,6.36158-6.33467,6.36158-3.5519,0-6.33243-2.83659-6.33243-6.36158Zm6.33243,5.67318c2.97561,0,4.13267-2.47893,4.13267-5.67318,0-3.27721-1.15706-5.75502-4.13267-5.75502-2.97337,0-4.13043,2.47781-4.13043,5.75502,0,3.19425,1.15706,5.67318,4.13043,5.67318Z"/>
    <path class="cls-1" d="m142.1317,48.44672c0,.66082-.52471,1.13905-1.32299,1.13905-.77137,0-1.18397-.36516-1.18397-.75164,0-.29565.13678-.59223.13678-.75164s-.16369-.22707-.38569-.22707c-.52247,0-1.12791.43189-1.5405,1.11495-.33187.56906-.63459,1.27529-.82743,2.09459v3.59695c0,2.04918.38569,2.09459,1.98449,2.254l.4395.04541v.52365l-3.38821-.06858-3.38597.06858v-.52365l.4395-.04541c1.5988-.15941,1.98449-.20483,1.98449-2.254v-4.73508c0-1.77577-.93731-1.91201-2.42399-1.91201v-.52365c1.51359,0,2.83659-.09083,4.35018-.27341l-.30272,2.61824h.10988c.79828-2.02601,2.03831-2.75448,3.38821-2.75448,1.54275,0,1.92843.79613,1.92843,1.36519Z"/>
    <g>
      <path class="cls-1" d="m153.12953,47.92532h28.1497v1.47137l-17.5016,52.1176h-4.33668l15.68174-47.27755h-14.44269c-2.91509,0-4.99493.34848-6.23398,1.04545-2.16834,1.18927-3.91076,3.02019-5.22725,5.49829l-1.12289-.42592,5.03365-12.42923Z"/>
      <path class="cls-1" d="m223.54227,47.92996v1.47003l-17.5,52.10999h-4.33997l15.69006-47.27002h-6.04004c-1.39001.17004-2.51001.62-3.27002,1.05005-2.16992,1.19-3.90991,3.01996-5.22998,5.5l-1.12-.43005,2.47998-6.12h-1.2699c-2.91016,0-4.99011.35004-6.2301,1.04004-2.17004,1.19-3.91003,3.01996-5.22998,5.5l-1.12-.42999,5.03003-12.42004h28.1499Z"/>
      <path class="cls-1" d="m265.23049,46.84115v1.43265c-3.40739.33742-6.18973,1.01226-8.34147,2.03005-2.15728,1.02332-4.2869,2.57767-6.39439,4.66857-2.10196,2.0909-3.84438,4.41965-5.22172,6.99179-1.38287,2.56661-2.53895,5.61998-3.46824,9.1546,3.71715-2.55554,7.44537-3.83332,11.19018-3.83332,3.58993,0,6.69862,1.44372,9.33161,4.33668s3.94948,6.61012,3.94948,11.15146c0,4.38646-1.32756,8.39125-3.9882,12.00331-3.20273,4.38646-7.43431,6.58246-12.70028,6.58246-3.58993,0-6.63224-1.18927-9.138-3.56227-4.90642-4.61879-7.35687-10.60938-7.35687-17.96625,0-4.69623.94035-9.16566,2.82659-13.39724s4.57453-7.98746,8.07043-11.26762c3.50143-3.28017,6.84797-5.48723,10.0507-6.62118s6.18419-1.7037,8.9444-1.7037h2.24578Zm-24.08406,27.10425c-.46464,3.48483-.69697,6.30036-.69697,8.44104,0,2.4781.45911,5.1664,1.37181,8.07596.91823,2.8985,2.27897,5.20512,4.08776,6.90882,1.31649,1.21139,2.91509,1.81986,4.80132,1.81986,2.24578,0,4.25371-1.05651,6.02378-3.17507,1.76454-2.11856,2.64958-5.13874,2.64958-9.06056,0-4.41412-.87951-8.23637-2.63298-11.46123s-4.24818-4.84004-7.47303-4.84004c-.97907,0-2.03558.20466-3.15294.61953-1.12842.41486-2.78233,1.30543-4.97833,2.6717Z"/>
    </g>
  </g>
</svg>